<svg width="16" height="30" viewBox="0 0 16 30" fill="none" xmlns="http://www.w3.org/2000/svg">
<path d="M5.1875 0.9375L5.1875 1.875L4.25 1.875C3.73221 1.875 3.3125 2.29471 3.3125 2.8125L3.3125 3.75L2.375 3.75C1.33947 3.75 0.5 4.58947 0.5 5.625L0.5 28.125C0.5 29.1605 1.33947 30 2.375 30L13.625 30C14.6605 30 15.5 29.1605 15.5 28.125L15.5 5.625C15.5 4.58947 14.6605 3.75 13.625 3.75L12.6875 3.75L12.6875 2.8125C12.6875 2.29471 12.2678 1.875 11.75 1.875L10.8125 1.875L10.8125 0.9375C10.8125 0.419706 10.3928 1.1797e-07 9.875 1.11796e-07L6.125 6.70775e-08C5.60721 6.09028e-08 5.1875 0.419706 5.1875 0.9375ZM4.25 5.625L13.625 5.625L13.625 18.75L2.375 18.75L2.375 5.625L4.25 5.625Z" fill="#FF005C"/>
</svg>
