<svg width="24" height="30" viewBox="0 0 24 30" fill="none" xmlns="http://www.w3.org/2000/svg">
<path d="M22 10C21.31 10 20.75 10.56 20.75 11.25V16.875C20.75 21.2744 17.4831 24.9156 13.25 25.525V23.6306C16.445 23.0406 18.875 20.2388 18.875 16.875V6.875C18.875 3.08437 15.7906 0 12 0C8.20937 0 5.125 3.08437 5.125 6.875V16.875C5.125 20.2388 7.555 23.0406 10.75 23.6306V25.525C6.51688 24.9156 3.25 21.2744 3.25 16.875V11.25C3.25 10.56 2.69 10 2 10C1.31 10 0.75 10.56 0.75 11.25V16.875C0.75 22.6556 5.13312 27.4269 10.75 28.0513V28.75C10.75 29.44 11.31 30 12 30C12.69 30 13.25 29.44 13.25 28.75V28.0513C18.8669 27.4269 23.25 22.6556 23.25 16.875V11.25C23.25 10.56 22.69 10 22 10ZM12 21.25C9.80062 21.25 7.98 19.6169 7.675 17.5H9.5C10.19 17.5 10.75 16.94 10.75 16.25C10.75 15.56 10.19 15 9.5 15H7.625V13.125H9.5C10.19 13.125 10.75 12.565 10.75 11.875C10.75 11.185 10.19 10.625 9.5 10.625H7.625V8.75H9.5C10.19 8.75 10.75 8.19 10.75 7.5C10.75 6.81 10.19 6.25 9.5 6.25H7.675C7.98 4.13312 9.80062 2.5 12 2.5C14.1994 2.5 16.02 4.13312 16.325 6.25H14.5C13.81 6.25 13.25 6.81 13.25 7.5C13.25 8.19 13.81 8.75 14.5 8.75H16.375V10.625H14.5C13.81 10.625 13.25 11.185 13.25 11.875C13.25 12.565 13.81 13.125 14.5 13.125H16.375V15H14.5C13.81 15 13.25 15.56 13.25 16.25C13.25 16.94 13.81 17.5 14.5 17.5H16.325C16.02 19.6169 14.1994 21.25 12 21.25Z" fill="#FF005C"/>
</svg>
