<svg width="12" height="8" viewBox="0 0 12 8" fill="none" xmlns="http://www.w3.org/2000/svg">
<path d="M1.0003 6.83006C1.18766 7.01631 1.44111 7.12085 1.7053 7.12085C1.96948 7.12085 2.22293 7.01631 2.4103 6.83006L6.0003 3.29006L9.5403 6.83006C9.72766 7.01631 9.98111 7.12085 10.2453 7.12085C10.5095 7.12085 10.7629 7.01631 10.9503 6.83006C11.044 6.73709 11.1184 6.62649 11.1692 6.50463C11.22 6.38277 11.2461 6.25207 11.2461 6.12006C11.2461 5.98805 11.22 5.85734 11.1692 5.73548C11.1184 5.61362 11.044 5.50302 10.9503 5.41006L6.7103 1.17006C6.61733 1.07633 6.50673 1.00193 6.38487 0.951166C6.26301 0.900397 6.13231 0.874259 6.0003 0.874259C5.86828 0.874259 5.73758 0.900397 5.61572 0.951166C5.49386 1.00193 5.38326 1.07633 5.2903 1.17006L1.0003 5.41006C0.906568 5.50302 0.832173 5.61362 0.781405 5.73548C0.730636 5.85734 0.704496 5.98804 0.704496 6.12006C0.704496 6.25207 0.730636 6.38277 0.781405 6.50463C0.832173 6.62649 0.906568 6.73709 1.0003 6.83006Z" fill="#797979"/>
</svg>
