<svg width="120" height="24" viewBox="0 0 120 24" fill="none" xmlns="http://www.w3.org/2000/svg">
<path d="M17.5599 21C17.4 21.0006 17.2422 20.9629 17.0999 20.89L11.9999 18.22L6.89988 20.89C6.73428 20.977 6.54756 21.0159 6.36096 21.0022C6.17436 20.9884 5.99536 20.9226 5.84431 20.8122C5.69326 20.7017 5.57622 20.5511 5.5065 20.3775C5.43677 20.2039 5.41716 20.0142 5.44988 19.83L6.44988 14.2L2.32988 10.2C2.20134 10.0717 2.11016 9.91083 2.06611 9.73465C2.02207 9.55848 2.02683 9.37363 2.07988 9.19996C2.13784 9.02223 2.24446 8.86431 2.38763 8.74412C2.53081 8.62392 2.70481 8.54627 2.88988 8.51996L8.58988 7.68996L11.0999 2.55996C11.1818 2.39089 11.3096 2.2483 11.4688 2.14853C11.628 2.04876 11.812 1.99585 11.9999 1.99585C12.1877 1.99585 12.3718 2.04876 12.531 2.14853C12.6901 2.2483 12.818 2.39089 12.8999 2.55996L15.4399 7.67996L21.1399 8.50996C21.325 8.53627 21.499 8.61392 21.6421 8.73412C21.7853 8.85431 21.8919 9.01223 21.9499 9.18996C22.0029 9.36363 22.0077 9.54848 21.9637 9.72465C21.9196 9.90083 21.8284 10.0617 21.6999 10.19L17.5799 14.19L18.5799 19.82C18.6156 20.0074 18.5969 20.2012 18.526 20.3784C18.4551 20.5556 18.335 20.7088 18.1799 20.82C17.9988 20.9469 17.7808 21.0102 17.5599 21Z" fill="#FF005C"/>
<path d="M41.5599 21C41.4 21.0006 41.2422 20.9629 41.0999 20.89L35.9999 18.22L30.8999 20.89C30.7343 20.977 30.5476 21.0159 30.361 21.0022C30.1744 20.9884 29.9954 20.9226 29.8443 20.8122C29.6933 20.7017 29.5762 20.5511 29.5065 20.3775C29.4368 20.2039 29.4172 20.0142 29.4499 19.83L30.4499 14.2L26.3299 10.2C26.2013 10.0717 26.1102 9.91083 26.0661 9.73465C26.0221 9.55848 26.0268 9.37363 26.0799 9.19996C26.1378 9.02223 26.2445 8.86431 26.3876 8.74412C26.5308 8.62392 26.7048 8.54627 26.8899 8.51996L32.5899 7.68996L35.0999 2.55996C35.1818 2.39089 35.3096 2.2483 35.4688 2.14853C35.628 2.04876 35.812 1.99585 35.9999 1.99585C36.1877 1.99585 36.3718 2.04876 36.531 2.14853C36.6901 2.2483 36.818 2.39089 36.8999 2.55996L39.4399 7.67996L45.1399 8.50996C45.325 8.53627 45.499 8.61392 45.6421 8.73412C45.7853 8.85431 45.8919 9.01223 45.9499 9.18996C46.0029 9.36363 46.0077 9.54848 45.9637 9.72465C45.9196 9.90083 45.8284 10.0617 45.6999 10.19L41.5799 14.19L42.5799 19.82C42.6156 20.0074 42.5969 20.2012 42.526 20.3784C42.4551 20.5556 42.335 20.7088 42.1799 20.82C41.9988 20.9469 41.7808 21.0102 41.5599 21Z" fill="#FF005C"/>
<path d="M65.5599 21C65.4 21.0006 65.2422 20.9629 65.0999 20.89L59.9999 18.22L54.8999 20.89C54.7343 20.977 54.5476 21.0159 54.361 21.0022C54.1744 20.9884 53.9954 20.9226 53.8443 20.8122C53.6933 20.7017 53.5762 20.5511 53.5065 20.3775C53.4368 20.2039 53.4172 20.0142 53.4499 19.83L54.4499 14.2L50.3299 10.2C50.2013 10.0717 50.1102 9.91083 50.0661 9.73465C50.0221 9.55848 50.0268 9.37363 50.0799 9.19996C50.1378 9.02223 50.2445 8.86431 50.3876 8.74412C50.5308 8.62392 50.7048 8.54627 50.8899 8.51996L56.5899 7.68996L59.0999 2.55996C59.1818 2.39089 59.3096 2.2483 59.4688 2.14853C59.628 2.04876 59.812 1.99585 59.9999 1.99585C60.1877 1.99585 60.3718 2.04876 60.531 2.14853C60.6901 2.2483 60.818 2.39089 60.8999 2.55996L63.4399 7.67996L69.1399 8.50996C69.325 8.53627 69.499 8.61392 69.6421 8.73412C69.7853 8.85431 69.8919 9.01223 69.9499 9.18996C70.0029 9.36363 70.0077 9.54848 69.9637 9.72465C69.9196 9.90083 69.8284 10.0617 69.6999 10.19L65.5799 14.19L66.5799 19.82C66.6156 20.0074 66.5969 20.2012 66.526 20.3784C66.4551 20.5556 66.335 20.7088 66.1799 20.82C65.9988 20.9469 65.7808 21.0102 65.5599 21Z" fill="#FF005C"/>
<path d="M89.5599 21C89.4 21.0006 89.2422 20.9629 89.0999 20.89L83.9999 18.22L78.8999 20.89C78.7343 20.977 78.5476 21.0159 78.361 21.0022C78.1744 20.9884 77.9954 20.9226 77.8443 20.8122C77.6933 20.7017 77.5762 20.5511 77.5065 20.3775C77.4368 20.2039 77.4172 20.0142 77.4499 19.83L78.4499 14.2L74.3299 10.2C74.2013 10.0717 74.1102 9.91083 74.0661 9.73465C74.0221 9.55848 74.0268 9.37363 74.0799 9.19996C74.1378 9.02223 74.2445 8.86431 74.3876 8.74412C74.5308 8.62392 74.7048 8.54627 74.8899 8.51996L80.5899 7.68996L83.0999 2.55996C83.1818 2.39089 83.3096 2.2483 83.4688 2.14853C83.628 2.04876 83.812 1.99585 83.9999 1.99585C84.1877 1.99585 84.3718 2.04876 84.531 2.14853C84.6901 2.2483 84.818 2.39089 84.8999 2.55996L87.4399 7.67996L93.1399 8.50996C93.325 8.53627 93.499 8.61392 93.6421 8.73412C93.7853 8.85431 93.8919 9.01223 93.9499 9.18996C94.0029 9.36363 94.0077 9.54848 93.9637 9.72465C93.9196 9.90083 93.8284 10.0617 93.6999 10.19L89.5799 14.19L90.5799 19.82C90.6156 20.0074 90.5969 20.2012 90.526 20.3784C90.4551 20.5556 90.335 20.7088 90.1799 20.82C89.9988 20.9469 89.7808 21.0102 89.5599 21Z" fill="#FF005C"/>
<path d="M113.56 21C113.4 21.0006 113.242 20.9629 113.1 20.89L108 18.22L102.9 20.89C102.734 20.977 102.548 21.0159 102.361 21.0022C102.174 20.9884 101.995 20.9226 101.844 20.8122C101.693 20.7017 101.576 20.5511 101.506 20.3775C101.437 20.2039 101.417 20.0142 101.45 19.83L102.45 14.2L98.3299 10.2C98.2013 10.0717 98.1102 9.91083 98.0661 9.73465C98.0221 9.55848 98.0268 9.37363 98.0799 9.19996C98.1378 9.02223 98.2445 8.86431 98.3876 8.74412C98.5308 8.62392 98.7048 8.54627 98.8899 8.51996L104.59 7.68996L107.1 2.55996C107.182 2.39089 107.31 2.2483 107.469 2.14853C107.628 2.04876 107.812 1.99585 108 1.99585C108.188 1.99585 108.372 2.04876 108.531 2.14853C108.69 2.2483 108.818 2.39089 108.9 2.55996L111.44 7.67996L117.14 8.50996C117.325 8.53627 117.499 8.61392 117.642 8.73412C117.785 8.85431 117.892 9.01223 117.95 9.18996C118.003 9.36363 118.008 9.54848 117.964 9.72465C117.92 9.90083 117.828 10.0617 117.7 10.19L113.58 14.19L114.58 19.82C114.616 20.0074 114.597 20.2012 114.526 20.3784C114.455 20.5556 114.335 20.7088 114.18 20.82C113.999 20.9469 113.781 21.0102 113.56 21Z" fill="#FF005C"/>
</svg>
